<svg width="720" height="451" viewBox="0 0 720 451" fill="none" xmlns="http://www.w3.org/2000/svg">
<g clip-path="url(#clip0_4_82)">
<path d="M711.331 257.929C706.527 260.031 694.817 259.73 694.817 259.73C694.817 259.73 697.219 252.224 697.519 251.623C700.221 246.218 708.329 237.511 714.934 238.411C719.739 239.012 722.441 243.816 721.24 248.32C720.339 252.524 715.535 256.127 711.331 257.929Z" fill="#263238"/>
<path d="M707.428 291.559C702.323 292.159 692.114 289.156 691.213 289.156C689.712 294.862 687.31 300.867 684.908 306.572C683.406 309.875 681.905 313.178 680.404 316.481C681.305 314.979 682.205 313.778 682.205 313.778C686.109 309.274 696.318 302.969 702.323 305.371C706.827 307.172 708.028 312.577 705.926 316.481C703.524 320.684 698.119 322.786 693.916 323.387C689.412 323.987 680.404 321.585 678.302 320.985C677.701 322.186 677.101 323.387 676.5 324.888C673.498 330.893 670.495 336.899 667.492 342.904C666.591 345.006 665.691 347.108 664.79 349.21C665.691 348.009 666.291 346.808 666.591 346.808C670.495 342.304 680.704 335.998 686.709 338.4C691.213 340.202 692.414 345.607 690.313 349.51C687.91 353.714 682.506 355.816 678.302 356.416C674.098 357.017 665.691 354.915 662.988 354.014C662.087 356.116 661.187 358.518 660.586 360.62C659.986 362.121 659.685 363.623 659.085 365.124C658.785 366.625 658.184 368.127 657.884 369.628C657.283 372.33 656.382 375.333 655.782 378.336C655.482 380.137 654.881 382.239 654.581 384.041C655.482 381.939 657.583 377.735 657.583 377.435C660.886 372.33 669.894 364.523 676.2 366.325C680.704 367.526 682.806 372.63 681.305 376.834C679.803 381.338 674.699 384.041 670.495 385.242C665.691 386.743 655.482 385.242 654.281 385.242C653.68 388.244 653.079 391.247 652.479 394.25C651.278 400.555 650.677 406.26 649.777 411.065H645.273C646.173 406.26 647.074 400.255 648.275 393.649C648.876 390.646 649.476 387.043 650.377 383.74C649.476 383.44 645.273 381.639 641.369 379.537C638.066 383.14 629.358 387.644 628.157 388.244C629.358 391.247 630.56 393.949 631.761 396.652C634.163 402.357 636.565 407.161 638.366 411.365H633.562C631.761 407.461 629.959 402.957 627.857 398.153C626.656 395.15 625.455 392.148 624.254 388.845C623.053 389.145 612.844 391.247 608.04 390.046C603.836 389.145 598.431 386.743 596.629 382.239C594.828 378.035 596.329 372.931 600.833 371.429C607.139 369.328 616.747 376.534 620.35 381.338C620.651 381.638 622.452 384.941 623.653 387.043C623.053 385.842 622.753 384.341 622.152 383.14C621.251 380.437 620.35 377.735 619.149 374.732C618.849 373.231 618.249 371.73 617.948 370.228C617.348 368.727 617.048 367.226 616.747 365.724C615.846 362.121 615.246 358.518 614.645 354.615C612.243 355.515 603.536 358.518 599.332 358.218C594.828 357.917 589.423 356.416 586.721 352.212C584.318 348.309 585.219 342.904 589.423 340.802C595.428 337.8 605.938 343.505 610.141 347.708C610.442 348.009 613.144 351.312 614.645 353.113C614.345 351.011 614.045 348.609 613.745 346.207C612.844 339.601 612.243 332.995 611.643 326.089C611.342 323.987 611.342 321.886 611.042 320.084C610.141 320.384 599.932 324.288 595.128 323.687C590.624 323.387 585.219 321.886 582.517 317.682C580.115 313.778 581.016 308.374 585.219 306.272C591.225 303.269 601.734 308.974 605.938 313.178C606.238 313.478 610.141 318.282 611.042 319.483C610.442 314.979 610.141 310.475 609.241 305.971C608.34 299.966 607.139 293.961 605.337 288.256C605.037 288.556 594.528 292.459 589.423 292.159C584.919 291.859 579.514 290.358 576.812 286.154C574.41 282.25 575.31 276.846 579.514 274.744C585.52 271.741 596.029 277.446 600.233 281.65C600.533 281.95 604.737 287.055 605.337 288.256C605.337 287.955 605.037 287.655 605.037 287.355C603.235 281.35 600.833 275.945 598.131 270.84C596.629 267.838 595.128 265.135 593.326 262.433C591.525 263.334 582.817 267.537 578.013 267.838C573.509 268.138 567.804 266.937 564.801 263.334C561.799 259.73 562.099 254.326 566.303 251.623C571.707 248.02 583.117 252.224 587.621 256.127C587.922 256.427 590.324 258.529 591.825 260.331C590.924 259.13 590.324 257.929 589.423 256.728C586.721 252.524 583.718 248.921 581.316 245.618C579.814 243.816 578.613 242.315 577.112 240.814C574.71 240.814 565.402 240.513 561.198 238.411C557.295 236.61 552.49 233.007 551.589 228.503C550.689 223.999 553.391 219.194 558.195 218.894C564.801 218.294 572.608 227.302 575.01 232.706C575.31 233.307 577.713 240.814 577.412 240.814C578.613 242.315 580.115 243.816 581.316 245.618C584.018 248.921 586.721 252.524 589.723 256.427C592.726 260.631 595.729 265.135 598.431 270.24C601.133 275.344 603.836 280.749 605.938 287.055C605.938 287.055 605.938 287.055 605.938 287.355C605.938 285.553 605.938 279.848 605.938 279.548C606.838 273.543 611.643 262.733 618.249 261.532C623.053 260.631 626.956 264.234 627.257 269.039C627.557 273.843 624.254 278.347 620.951 281.35C617.348 284.652 606.838 287.955 605.938 288.256C607.739 293.961 609.241 299.966 610.442 306.272C611.042 309.875 611.643 313.478 611.943 317.081C611.943 315.28 611.943 313.778 611.943 313.778C612.844 307.773 617.648 296.963 624.254 295.762C629.058 294.862 632.962 298.465 633.262 303.269C633.562 308.073 630.259 312.577 626.956 315.58C623.653 318.583 614.946 321.585 612.544 322.186C612.844 323.687 612.844 324.888 613.144 326.389C614.045 332.995 614.645 339.601 615.546 346.207C615.846 348.609 616.147 350.711 616.747 353.113C616.747 351.612 616.747 350.411 616.747 350.111C617.648 344.105 622.452 333.296 629.058 332.095C633.862 331.194 637.766 334.797 638.066 339.601C638.366 344.405 635.064 348.909 631.761 351.912C628.458 354.915 620.35 357.617 617.648 358.518C618.249 360.92 618.549 363.022 619.149 365.424C619.45 366.925 619.75 368.427 620.35 369.928C620.951 371.429 621.251 372.931 621.852 374.432C622.753 377.134 623.954 380.137 624.854 382.539C625.455 384.341 626.356 386.142 626.956 387.944C626.656 385.542 626.055 381.038 626.055 380.738C626.055 376.834 627.257 370.228 630.259 365.724C630.259 365.124 630.259 364.523 630.259 363.923C630.86 359.419 635.364 356.116 639.868 357.317C646.173 359.119 650.377 370.228 650.677 376.234C650.677 376.534 650.377 380.437 650.377 382.84C650.677 381.338 650.978 380.137 651.278 378.636C651.878 375.933 652.779 372.931 653.38 369.928C653.68 368.427 654.281 366.925 654.581 365.424C654.881 363.923 655.482 362.421 656.082 360.92C657.283 357.317 658.785 354.014 660.286 350.411C657.884 349.81 648.876 347.708 645.573 344.706C641.97 342.003 638.366 337.499 638.366 332.995C638.366 328.491 641.97 324.288 646.774 324.888C653.38 325.489 659.085 336.298 660.286 342.003C660.286 342.304 660.886 346.507 660.886 348.909C661.787 346.808 662.688 344.706 663.889 342.604C666.892 336.599 669.894 330.593 673.197 324.888C674.098 323.087 674.999 321.285 675.9 319.483C674.999 319.183 664.49 316.781 660.586 313.778C656.983 311.076 653.38 306.572 653.38 302.068C653.38 297.564 656.983 293.36 661.787 293.961C668.393 294.561 674.098 305.371 675.299 311.076C675.299 311.376 675.9 317.682 675.9 319.183C678.002 315.28 680.103 311.076 681.905 307.172C684.607 301.467 686.709 296.063 688.511 290.358C688.211 290.358 677.101 287.655 672.897 284.652C669.294 281.95 665.691 277.446 665.691 272.942C665.691 268.438 669.294 264.234 674.098 264.835C680.704 265.435 686.409 276.245 687.61 281.95C687.61 282.551 688.211 289.156 688.211 290.358C688.211 290.057 688.511 289.757 688.511 289.457C690.312 283.451 691.213 277.446 691.814 271.741C692.114 268.438 692.414 265.135 692.414 262.133C690.313 261.832 680.704 260.631 676.801 258.229C672.897 255.827 668.693 251.923 668.393 247.119C667.793 242.615 671.095 238.111 675.9 238.111C682.506 238.111 689.412 248.02 691.213 253.725C691.213 254.025 692.114 257.328 692.414 259.73C692.414 258.229 692.414 257.028 692.414 255.527C692.414 250.422 692.114 245.918 691.814 241.714C691.514 239.312 691.514 237.21 691.213 235.409C689.412 234.208 681.605 228.503 679.203 224.899C676.8 220.996 674.999 215.591 676.801 211.388C678.602 207.184 683.406 204.782 687.61 206.884C693.615 209.886 695.117 221.897 694.216 227.602C694.216 228.202 691.814 236.009 691.814 235.709C692.114 237.511 692.414 239.613 692.715 241.714C693.015 245.918 693.615 250.422 693.615 255.527C693.615 260.631 693.615 266.036 693.315 271.741C692.715 277.446 691.814 283.752 690.313 289.757C690.313 289.757 690.313 289.757 690.313 290.057C691.213 288.556 694.516 284.052 694.817 283.451C698.72 278.947 708.929 272.642 714.934 275.044C719.438 276.846 720.639 282.25 718.538 286.154C717.336 288.856 711.932 290.958 707.428 291.559Z" fill="#263238"/>
<path d="M593.326 260.331C593.326 260.331 591.225 252.524 591.225 251.923C590.324 245.918 592.426 234.208 598.131 231.205C602.334 229.103 607.139 231.505 608.94 236.009C610.442 240.513 608.64 245.918 606.238 249.521C603.235 254.025 593.326 260.331 593.326 260.331Z" fill="#263238"/>
<path d="M87.3864 189H274.597C282.998 189 289.898 195.019 291.098 203.445L319 412H98.487L71.1854 207.96C69.6853 198.028 77.4858 189 87.3864 189Z" fill="#263238"/>
<path d="M446.196 337.499C434.185 344.405 409.864 346.207 406.561 342.604C403.258 339.301 373.231 286.754 373.231 286.754C373.231 286.754 369.928 330.893 369.928 348.309C369.928 360.019 376.234 391.848 380.437 411.065H186.165L179.259 346.207C179.259 346.207 169.35 360.62 155.538 372.03C141.726 383.44 127.313 380.738 112.9 372.631C98.4874 364.523 91.5812 347.408 95.785 329.993C99.6884 312.878 133.018 238.712 138.423 228.803C143.527 218.894 145.329 195.473 152.235 194.873C159.141 194.272 227.001 169.65 227.001 169.65C227.001 169.65 268.438 158.24 274.744 159.742C281.049 161.543 330.593 164.246 333.296 164.246C335.998 164.246 370.228 167.248 378.035 171.152C386.143 175.055 399.354 199.377 402.057 208.985C405.059 218.894 465.413 295.762 466.914 308.374C469.016 321.585 458.206 330.593 446.196 337.499Z" fill="#476AB0" stroke="#263238" stroke-miterlimit="10" stroke-linecap="round" stroke-linejoin="round"/>
<path d="M265.435 348.309C281.95 360.92 307.773 379.537 326.99 390.046" stroke="#263238" stroke-miterlimit="10" stroke-linecap="round" stroke-linejoin="round"/>
<path d="M248.621 335.698C248.621 335.698 251.023 337.499 254.926 340.502" stroke="#263238" stroke-miterlimit="10" stroke-linecap="round" stroke-linejoin="round"/>
<path d="M278.347 369.328C278.347 369.328 308.974 391.247 325.789 399.054" stroke="#263238" stroke-miterlimit="10" stroke-linecap="round" stroke-linejoin="round"/>
<path d="M179.259 242.915C178.358 240.814 177.457 238.712 176.256 236.31" stroke="#263238" stroke-miterlimit="10" stroke-linecap="round" stroke-linejoin="round"/>
<path d="M192.17 279.848C192.17 279.848 190.369 269.039 182.262 250.122" stroke="#263238" stroke-miterlimit="10" stroke-linecap="round" stroke-linejoin="round"/>
<path d="M197.875 277.146C197.875 277.146 198.476 264.835 194.272 257.028" stroke="#263238" stroke-miterlimit="10" stroke-linecap="round" stroke-linejoin="round"/>
<path d="M372.931 287.055L383.74 252.524" stroke="#263238" stroke-miterlimit="10" stroke-linecap="round" stroke-linejoin="round"/>
<path d="M334.797 201.779C334.797 201.779 333.896 210.787 332.695 214.69C331.794 218.894 329.993 231.505 329.993 231.505C329.993 231.505 321.585 218.894 319.484 216.492C317.382 213.79 324.288 199.677 324.288 199.677L334.797 201.779Z" fill="white" stroke="#263238" stroke-miterlimit="10" stroke-linecap="round" stroke-linejoin="round"/>
<path d="M323.687 182.862L334.797 201.779C334.797 201.779 324.888 214.39 314.979 221.597C305.07 228.803 289.757 240.814 289.757 240.814C289.757 240.814 296.963 216.792 298.765 209.886C300.266 202.98 313.478 180.16 313.478 180.16C313.478 180.16 320.084 177.758 323.687 182.862Z" fill="white" stroke="#263238" stroke-miterlimit="10" stroke-linecap="round" stroke-linejoin="round"/>
<path d="M224.599 129.715C224.599 129.715 222.497 133.919 225.5 135.42C228.502 136.921 235.408 139.023 235.408 139.023L234.808 163.045C234.808 163.045 256.727 202.079 263.633 211.688C270.54 220.996 289.757 240.814 289.757 240.814C289.757 240.814 307.773 215.892 309.874 209.586C311.976 203.28 320.083 179.86 320.083 179.86C320.083 179.86 287.054 176.557 280.448 172.053C273.542 167.248 261.532 153.736 258.529 141.125C255.526 128.514 262.733 121.308 252.824 114.101C242.915 106.895 236.609 103.592 232.406 105.694C228.202 107.796 224.599 129.715 224.599 129.715Z" fill="white" stroke="#263238" stroke-miterlimit="10" stroke-linecap="round" stroke-linejoin="round"/>
<path d="M242.916 130.616L235.409 139.023C235.409 139.023 228.203 141.425 224.299 129.715C220.396 118.005 232.106 105.694 232.106 105.694L242.916 130.616Z" fill="#263238" stroke="#263238" stroke-miterlimit="10" stroke-linecap="round" stroke-linejoin="round"/>
<path d="M274.143 206.583L289.757 240.814L257.929 218.894L274.143 206.583Z" fill="white" stroke="#263238" stroke-miterlimit="10" stroke-linecap="round" stroke-linejoin="round"/>
<path d="M234.508 150.734C234.508 150.734 247.119 172.053 253.125 180.76C259.43 189.768 274.143 206.283 274.143 206.283L255.227 235.409C255.227 235.409 237.811 202.98 232.106 192.471C225.8 180.46 224.9 171.452 224.9 171.452L234.508 150.734Z" fill="white" stroke="#263238" stroke-miterlimit="10" stroke-linecap="round" stroke-linejoin="round"/>
<path d="M232.706 120.707C232.706 120.707 235.709 127.913 236.91 129.715C237.811 131.216 246.218 135.42 246.218 135.42L249.822 130.616L249.221 100.289V76.2676C249.221 76.2676 233.007 81.0719 230.304 90.3801C227.602 99.6884 232.706 120.707 232.706 120.707Z" fill="white" stroke="#263238" stroke-miterlimit="10" stroke-linecap="round" stroke-linejoin="round"/>
<path d="M342.003 86.1764C342.003 86.1764 349.21 79.8708 351.912 72.0639C354.615 64.257 358.218 53.7477 349.81 41.737C341.403 29.7264 316.781 0 289.757 0C262.733 0 230.304 17.7157 216.192 28.8256C202.079 39.9354 190.969 61.2543 186.465 70.5626C181.661 79.8708 187.366 86.777 189.468 90.9807C193.972 100.289 191.57 111.699 196.074 121.007C201.479 133.018 214.69 132.718 225.8 135.42C227.902 136.021 232.106 133.919 235.109 125.511C238.111 117.104 237.811 101.49 247.119 84.3748C256.428 66.9594 309.575 49.2437 342.003 86.1764Z" fill="#474544" stroke="#263238" stroke-miterlimit="10" stroke-linecap="round" stroke-linejoin="round"/>
<path d="M191.87 93.0826C191.87 93.0826 193.672 58.2517 211.988 34.8309" stroke="#263238" stroke-miterlimit="10" stroke-linecap="round" stroke-linejoin="round"/>
<path d="M311.376 15.3136C303.869 10.2091 297.864 6.60587 288.255 4.80428" stroke="#615E5E" stroke-miterlimit="10" stroke-linecap="round" stroke-linejoin="round"/>
<path d="M342.603 53.7477C342.603 53.7477 332.695 29.1258 317.381 19.5173" stroke="#615E5E" stroke-miterlimit="10" stroke-linecap="round" stroke-linejoin="round"/>
<path d="M286.153 14.7131C277.446 12.0107 272.341 10.5093 272.341 10.5093" stroke="#615E5E" stroke-miterlimit="10" stroke-linecap="round" stroke-linejoin="round"/>
<path d="M332.395 48.3429C332.395 48.3429 318.883 26.1232 301.768 19.8176C299.065 18.9168 296.663 18.016 294.561 17.1152" stroke="#615E5E" stroke-miterlimit="10" stroke-linecap="round" stroke-linejoin="round"/>
<path d="M313.478 49.2437C313.478 49.2437 307.172 37.233 292.459 30.6272C277.746 24.0213 265.735 20.7184 256.427 20.7184" stroke="#615E5E" stroke-miterlimit="10" stroke-linecap="round" stroke-linejoin="round"/>
<path d="M265.735 31.528C261.832 30.3269 259.43 29.7264 259.43 29.7264" stroke="#615E5E" stroke-miterlimit="10" stroke-linecap="round" stroke-linejoin="round"/>
<path d="M299.665 48.9434C299.665 48.9434 287.054 39.9354 277.445 36.032C275.944 35.4314 274.443 34.8309 272.941 34.2304" stroke="#615E5E" stroke-miterlimit="10" stroke-linecap="round" stroke-linejoin="round"/>
<path d="M252.824 72.0639C252.824 72.0639 236.009 64.5573 220.696 63.9567" stroke="#615E5E" stroke-miterlimit="10" stroke-linecap="round" stroke-linejoin="round"/>
<path d="M325.789 53.4474C325.789 53.4474 344.705 56.4501 345.606 69.6618C346.507 82.5732 344.705 105.093 342.604 111.399C340.502 117.704 342.604 137.522 344.705 151.635C346.807 165.747 336.298 180.46 327.89 185.565C319.483 190.669 306.872 193.372 291.859 188.567C276.845 183.763 262.132 175.055 255.827 166.047C249.521 157.039 250.121 155.538 248.92 154.037C248.02 152.535 246.218 144.128 246.218 135.12C246.218 126.112 246.218 111.699 246.218 103.892C246.218 96.0852 246.819 84.0746 246.819 84.0746C246.819 84.0746 276.245 41.737 325.789 53.4474Z" fill="white" stroke="#263238" stroke-miterlimit="10" stroke-linecap="round" stroke-linejoin="round"/>
<path d="M267.537 64.5573C266.636 71.4634 264.234 84.0746 257.929 87.0772C250.722 90.6804 250.722 96.0852 252.224 104.793C253.725 113.801 255.226 134.519 262.132 140.224C269.039 145.929 272.642 149.533 280.449 146.53C288.256 143.527 291.559 138.723 303.569 138.122C315.58 137.522 322.486 136.021 327.59 138.723C332.695 141.425 335.998 143.828 335.998 143.828C335.998 143.828 339.601 138.723 342.604 131.517C343.204 138.122 344.105 145.329 345.006 151.334C347.108 165.447 336.598 180.16 328.191 185.264C319.784 190.369 307.172 193.071 292.159 188.267C277.146 183.463 262.433 174.755 256.127 165.747C249.821 156.739 250.422 155.238 249.221 153.736C248.32 152.235 246.519 143.828 246.519 134.82C246.519 125.812 246.519 111.399 246.519 103.592C246.519 95.7849 241.114 95.7849 241.114 95.7849C241.114 95.7849 243.216 81.9727 267.537 64.5573Z" fill="#263238" stroke="#263238" stroke-miterlimit="10" stroke-linecap="round" stroke-linejoin="round"/>
<path d="M332.095 55.249C329.693 59.1525 323.087 67.5599 312.277 67.5599C301.167 67.5599 291.559 59.4527 286.454 55.249C297.564 51.3455 310.776 49.8442 326.09 53.4474C325.789 53.4474 328.492 53.7477 332.095 55.249Z" fill="#263238" stroke="#263238" stroke-miterlimit="10" stroke-linecap="round" stroke-linejoin="round"/>
<path d="M317.982 92.1818L315.28 101.49C315.28 101.49 317.982 118.305 318.283 124.911C318.883 131.817 323.087 138.423 311.076 138.423C299.066 138.423 296.964 133.318 296.964 129.415" stroke="#263238" stroke-miterlimit="10" stroke-linecap="round" stroke-linejoin="round"/>
<path d="M301.167 88.8789C301.167 88.8789 299.666 85.8762 289.156 85.8762C278.647 85.8762 272.041 92.7823 272.041 92.7823" stroke="#263238" stroke-width="2" stroke-miterlimit="10" stroke-linecap="round" stroke-linejoin="round"/>
<path d="M324.888 90.0799C324.888 90.0799 332.695 85.2757 341.102 90.0799" stroke="#263238" stroke-width="2" stroke-miterlimit="10" stroke-linecap="round" stroke-linejoin="round"/>
<path d="M323.687 147.131C318.282 149.232 307.773 151.935 295.462 146.53" stroke="white" stroke-width="2" stroke-miterlimit="10" stroke-linecap="round" stroke-linejoin="round"/>
<path d="M286.454 108.396C288.278 108.396 289.757 106.38 289.757 103.892C289.757 101.405 288.278 99.3882 286.454 99.3882C284.63 99.3882 283.151 101.405 283.151 103.892C283.151 106.38 284.63 108.396 286.454 108.396Z" fill="#263238"/>
<path d="M326.99 108.396C328.814 108.396 330.293 106.38 330.293 103.892C330.293 101.405 328.814 99.3882 326.99 99.3882C325.166 99.3882 323.687 101.405 323.687 103.892C323.687 106.38 325.166 108.396 326.99 108.396Z" fill="#263238"/>
<path d="M318.583 108.696C318.583 108.696 322.186 112.3 325.789 113.801" stroke="#263238" stroke-miterlimit="10" stroke-linecap="round" stroke-linejoin="round"/>
<path d="M293.961 109.297C293.961 109.297 289.757 116.203 284.052 115.603" stroke="#263238" stroke-miterlimit="10" stroke-linecap="round" stroke-linejoin="round"/>
<path d="M301.467 215.291C301.467 215.291 308.673 211.087 312.577 207.184C316.78 202.98 317.681 197.275 321.284 202.379C324.888 207.484 323.086 211.688 318.282 214.991C313.477 218.294 299.965 220.395 299.965 220.395C299.965 220.395 296.663 217.993 301.467 215.291Z" fill="white" stroke="#263238" stroke-miterlimit="10" stroke-linecap="round" stroke-linejoin="round"/>
<path d="M299.966 216.792C299.966 216.792 318.282 210.186 321.285 210.487C324.287 211.087 327.891 213.489 328.491 217.693C329.092 221.897 325.488 224.599 325.488 224.599C325.488 224.599 328.491 230.004 328.491 232.106C328.491 234.208 327.891 236.61 327.891 236.61C327.891 236.61 331.794 240.513 331.794 243.216C331.794 246.218 328.791 249.221 328.791 249.221C328.791 249.221 329.992 253.425 328.191 257.028C326.389 260.931 314.679 271.741 307.472 274.744C300.566 277.746 288.255 280.749 288.255 280.749L258.529 299.966L241.414 270.54C241.414 270.54 261.231 256.427 264.234 252.824C267.237 249.221 273.843 238.111 275.944 230.905C278.046 223.999 298.765 216.492 298.765 216.492H299.966V216.792Z" fill="white" stroke="#263238" stroke-miterlimit="10" stroke-linecap="round" stroke-linejoin="round"/>
<path d="M325.489 224.599L314.379 230.905" stroke="#263238" stroke-miterlimit="10" stroke-linecap="round" stroke-linejoin="round"/>
<path d="M327.891 236.61L316.781 244.417" stroke="#263238" stroke-miterlimit="10" stroke-linecap="round" stroke-linejoin="round"/>
<path d="M328.491 249.221L320.984 255.226" stroke="#263238" stroke-miterlimit="10" stroke-linecap="round" stroke-linejoin="round"/>
<path d="M338.1 274.744H371.729C373.831 274.744 375.933 272.942 376.233 270.84L384.04 206.583C384.341 203.881 382.239 201.779 379.536 201.779H330.593C327.891 201.779 325.789 204.181 326.089 206.583L333.896 270.84C334.196 273.242 335.998 274.744 338.1 274.744Z" fill="white" stroke="#263238" stroke-miterlimit="10" stroke-linecap="round" stroke-linejoin="round"/>
<path d="M376.834 197.575C376.834 197.575 371.73 193.972 372.33 186.766C372.931 179.86 380.738 180.16 380.738 172.353C380.738 164.546 376.834 164.546 374.733 156.439" stroke="#263238" stroke-miterlimit="10" stroke-linecap="round"/>
<path d="M357.617 197.275C357.617 197.275 354.915 195.173 354.915 189.168C354.915 183.162 359.719 184.063 360.62 177.457" stroke="#263238" stroke-miterlimit="10" stroke-linecap="round"/>
<path d="M245.918 264.535L268.438 298.465L246.518 315.28L223.398 276.545L245.918 264.535Z" fill="#476AB0" stroke="#263238" stroke-miterlimit="10" stroke-linecap="round" stroke-linejoin="round"/>
<path d="M102.09 314.079C102.09 314.079 91.8814 342.304 90.6804 351.912C89.4793 361.821 98.187 382.84 103.892 390.947C109.597 399.054 144.128 390.947 169.35 378.936C194.572 366.925 242.315 334.797 246.519 329.993C250.422 325.489 246.519 314.979 246.519 314.979L223.398 276.545C223.398 276.545 219.495 272.041 214.09 272.642C208.985 273.242 133.018 307.172 133.018 307.172" fill="#476AB0"/>
<path d="M102.09 314.079C102.09 314.079 91.8814 342.304 90.6804 351.912C89.4793 361.821 98.187 382.84 103.892 390.947C109.597 399.054 144.128 390.947 169.35 378.936C194.572 366.925 242.315 334.797 246.519 329.993C250.422 325.489 246.519 314.979 246.519 314.979L223.398 276.545C223.398 276.545 219.495 272.041 214.09 272.642C208.985 273.242 133.018 307.172 133.018 307.172" stroke="#263238" stroke-miterlimit="10" stroke-linecap="round" stroke-linejoin="round"/>
<path d="M462.11 298.465C462.11 298.465 476.523 313.478 479.826 331.194C483.129 348.909 475.922 361.521 471.719 370.228C467.815 378.936 464.812 382.239 458.507 382.84C452.201 383.44 417.07 378.336 414.668 372.631C412.266 366.925 404.759 353.714 405.96 338.7C407.161 323.687 424.877 306.572 440.491 307.773" fill="#476AB0"/>
<path d="M462.11 298.465C462.11 298.465 476.523 313.478 479.826 331.194C483.129 348.909 475.922 361.521 471.719 370.228C467.815 378.936 464.812 382.239 458.507 382.84C452.201 383.44 417.07 378.336 414.668 372.631C412.266 366.925 404.759 353.714 405.96 338.7C407.161 323.687 424.877 306.572 440.491 307.773" stroke="#263238" stroke-miterlimit="10" stroke-linecap="round" stroke-linejoin="round"/>
<path d="M458.807 383.14C458.807 383.14 461.81 368.727 440.491 361.821C419.172 354.915 411.665 361.22 412.867 369.328C413.767 377.134 446.196 390.346 458.807 383.14Z" fill="#476AB0" stroke="#263238" stroke-miterlimit="10" stroke-linecap="round" stroke-linejoin="round"/>
<path d="M410.765 370.529C410.765 370.529 404.459 377.435 398.454 377.435C392.148 377.435 382.239 388.545 378.036 391.848C373.832 394.85 363.623 395.451 366.926 403.558C369.928 411.665 382.54 406.561 387.944 403.558C393.649 400.555 396.652 394.25 400.856 394.25C405.06 394.25 409.564 395.451 421.274 398.453C432.984 401.456 447.397 396.652 439.29 387.344C431.483 378.035 410.765 370.529 410.765 370.529Z" fill="white" stroke="#263238" stroke-miterlimit="10" stroke-linecap="round" stroke-linejoin="round"/>
<path d="M454.903 382.539C454.903 382.539 463.611 382.539 465.413 390.346C467.214 398.153 465.413 408.662 457.906 411.665C450.399 414.668 454.303 406.26 454.303 400.856C454.303 395.451 454.303 385.842 454.303 385.842L454.903 382.539Z" fill="white" stroke="#263238" stroke-miterlimit="10" stroke-linecap="round" stroke-linejoin="round"/>
<path d="M442.592 372.631C442.592 372.631 457.005 376.834 457.005 384.941C457.005 393.049 452.801 409.864 446.496 411.065C440.19 412.266 439.59 407.461 440.791 398.153C441.992 388.545 442.592 372.631 442.592 372.631Z" fill="white" stroke="#263238" stroke-miterlimit="10" stroke-linecap="round" stroke-linejoin="round"/>
<path d="M427.579 366.925C427.579 366.925 437.488 360.62 441.391 368.727C444.995 376.834 443.193 396.652 439.59 402.357C435.987 408.062 427.879 406.561 427.279 398.153C426.378 389.445 427.579 366.925 427.579 366.925Z" fill="white" stroke="#263238" stroke-miterlimit="10" stroke-linecap="round" stroke-linejoin="round"/>
<path d="M408.962 368.427C408.962 364.523 411.365 360.62 414.968 359.419C416.469 358.818 417.97 358.518 420.072 359.119C428.179 360.32 429.381 366.025 428.179 370.829C426.978 375.933 428.78 399.354 424.576 403.858C420.373 408.062 412.866 405.66 410.764 401.456C409.263 397.553 408.962 376.834 408.962 368.427Z" fill="white" stroke="#263238" stroke-miterlimit="10" stroke-linecap="round" stroke-linejoin="round"/>
<path d="M0 412H701" stroke="#263238" stroke-miterlimit="10" stroke-linecap="round" stroke-linejoin="round"/>
<path d="M302.668 430.582L475.322 407.461L589.123 409.864L457.306 450.7L302.668 430.582Z" fill="#BBB9B9" stroke="#263238" stroke-miterlimit="10" stroke-linecap="round" stroke-linejoin="round"/>
<path d="M436.587 414.368L459.107 416.169L411.065 423.375L382.239 422.475L436.587 414.368Z" stroke="#263238" stroke-miterlimit="10" stroke-linecap="round" stroke-linejoin="round"/>
<path d="M462.711 417.971L390.647 429.681L460.309 433.885" stroke="#263238" stroke-miterlimit="10" stroke-linecap="round" stroke-linejoin="round"/>
<path d="M621.551 268.138L589.122 409.863L457.305 450.7L493.037 274.143L621.551 268.138Z" fill="#0D0C0C" stroke="#263238" stroke-miterlimit="10" stroke-linecap="round" stroke-linejoin="round"/>
<path d="M485.831 310.475C504.147 327.891 525.166 356.716 549.187 385.842C563.299 402.657 577.712 407.762 590.023 407.762L589.423 409.864L457.305 451L485.831 310.475Z" fill="#232121" stroke="#263238" stroke-miterlimit="10" stroke-linecap="round" stroke-linejoin="round"/>
<path d="M539.879 342.604C538.077 350.411 540.78 357.617 545.584 358.818C550.688 360.019 556.093 354.615 557.895 346.808C559.696 339.001 556.994 331.794 552.19 330.593C547.085 329.392 541.68 334.797 539.879 342.604Z" fill="white" stroke="#263238" stroke-miterlimit="10" stroke-linecap="round" stroke-linejoin="round"/>
<path d="M457.306 450.7L302.668 437.788V430.582L460.008 439.59L457.306 450.7Z" fill="#8C8888" stroke="#263238" stroke-miterlimit="10" stroke-linecap="round" stroke-linejoin="round"/>
</g>
<defs>
<clipPath id="clip0_4_82">
<rect width="720" height="451" fill="white"/>
</clipPath>
</defs>
</svg>
