<svg width="107" height="106" viewBox="0 0 107 106" fill="none" xmlns="http://www.w3.org/2000/svg">
<path d="M26.199 106C11.7513 106 0 94.2488 0 79.8022V35.8427C0 31.6436 3.40398 28.2385 7.60542 28.2385C11.8069 28.2385 15.2108 31.6436 15.2108 35.8427V79.8034C15.2108 85.8624 20.1399 90.7915 26.199 90.7915C32.258 90.7915 37.1871 85.8624 37.1871 79.8034C37.1895 77.7762 36.6305 75.7879 35.5721 74.0589C34.5137 72.33 32.9973 70.9278 31.1908 70.008C29.4056 69.0815 28.0599 67.4858 27.448 65.5698C26.8361 63.6539 27.0078 61.5736 27.9256 59.7839C28.8433 57.9942 30.4325 56.6407 32.3454 56.0195C34.2584 55.3983 36.3395 55.5599 38.1336 56.4689C46.9281 60.9815 52.3979 69.9216 52.3979 79.8011C52.3967 94.2488 40.6467 106 26.199 106Z" fill="url(#paint0_linear_3_68)"/>
<path d="M71.8362 87.4112C69.8183 87.4109 67.8831 86.6091 66.4562 85.1823C65.0293 83.7554 64.2276 81.8202 64.2273 79.8022C64.2273 61.5104 51.2005 45.7837 33.2554 42.4211C31.2728 42.0498 29.5188 40.9065 28.3787 39.2426C27.2386 37.5787 26.8057 35.5303 27.1751 33.5473C27.5475 31.5641 28.6922 29.8099 30.3575 28.6704C32.0228 27.5309 34.0725 27.0993 36.0559 27.4706C61.1936 32.1808 79.4405 54.1913 79.4405 79.8022C79.4408 81.8195 78.6399 83.7544 77.2139 85.1813C75.7879 86.6082 73.8535 87.4103 71.8362 87.4112Z" fill="url(#paint1_linear_3_68)"/>
<path d="M98.88 87.4112C96.862 87.4109 94.9268 86.6091 93.5 85.1822C92.0731 83.7554 91.2713 81.8202 91.271 79.8022C91.271 46.7468 66.5522 18.9588 33.7748 15.1632C31.7707 14.931 29.941 13.9122 28.6881 12.3309C28.0677 11.548 27.6077 10.6505 27.3341 9.68968C27.0606 8.72891 26.979 7.72367 27.094 6.73136C27.209 5.73905 27.5183 4.7791 28.0043 3.90633C28.4902 3.03355 29.1433 2.26504 29.9263 1.64467C31.5076 0.391784 33.5218 -0.181627 35.5259 0.0505826C75.9785 4.73594 106.485 39.0219 106.485 79.8022C106.486 81.8197 105.685 83.7548 104.258 85.1817C102.832 86.6086 100.897 87.4106 98.88 87.4112Z" fill="url(#paint2_linear_3_68)"/>
<defs>
<linearGradient id="paint0_linear_3_68" x1="-15.0906" y1="27.516" x2="4733.77" y2="2241.95" gradientUnits="userSpaceOnUse">
<stop stop-color="#395ECA"/>
<stop offset="1" stop-color="#848BD8"/>
</linearGradient>
<linearGradient id="paint1_linear_3_68" x1="9.80112" y1="38.1325" x2="4758.32" y2="2252.4" gradientUnits="userSpaceOnUse">
<stop stop-color="#395ECA"/>
<stop offset="1" stop-color="#848BD8"/>
</linearGradient>
<linearGradient id="paint2_linear_3_68" x1="21.3532" y1="13.3522" x2="7221.24" y2="3370.71" gradientUnits="userSpaceOnUse">
<stop stop-color="#395ECA"/>
<stop offset="1" stop-color="#848BD8"/>
</linearGradient>
</defs>
</svg>
