<svg width="507" height="106" viewBox="0 0 507 106" fill="none" xmlns="http://www.w3.org/2000/svg">
<g clip-path="url(#clip0_3_54)">
<path d="M156 84.9475H179.968C197.185 84.9475 208.461 73.8747 208.461 51.9317C208.461 30.0563 197.185 18.9835 179.968 18.9835H156V84.9475ZM168.491 73.8747V30.0563H179.968C189.286 30.0563 195.227 35.5251 195.227 46.7329V57.1305C195.227 68.4059 189.286 73.8747 179.968 73.8747H168.491ZM240.329 86.0953C249.443 86.0953 256.668 82.5844 260.719 76.9805L254.17 69.7562C251.199 73.6047 247.553 76.4404 241.611 76.4404C233.712 76.4404 229.593 71.6467 229.593 64.5574V63.2746H262.407V59.3586C262.407 45.7877 255.317 34.4449 239.923 34.4449C225.475 34.4449 217.035 44.5724 217.035 60.1688C217.035 75.9677 225.745 86.0953 240.329 86.0953ZM240.126 43.5596C246.338 43.5596 249.848 48.1508 249.848 54.97V55.8477H229.593V55.105C229.593 48.2858 233.779 43.5596 240.126 43.5596ZM297.178 84.9475L313.719 35.5926H302.242L295.49 56.8605L290.696 74.4824H290.021L285.227 56.8605L278.273 35.5926H266.39L282.864 84.9475H297.178ZM322.564 84.9475H355.985C365.707 84.9475 372.999 76.6429 372.999 66.0428C372.999 54.7674 364.492 50.7164 358.753 50.6489V50.0413C364.762 49.7037 370.569 45.9227 370.569 35.8627C370.569 25.6677 363.952 18.9835 353.082 18.9835H322.564V84.9475ZM334.987 56.6579H352.407C357.133 56.6579 359.969 59.3586 359.969 63.9497V67.1906C359.969 71.7817 357.133 74.3473 352.407 74.3473H334.987V56.6579ZM334.987 29.5836H350.449C354.972 29.5836 357.605 32.0818 357.605 36.5379V39.5086C357.605 43.8297 354.972 46.4629 350.449 46.4629H334.987V29.5836ZM403.044 84.9475V75.2926H396.563V15H384.477V73.0645C384.477 80.6264 388.326 84.9475 396.563 84.9475H403.044ZM431.806 86.0953C445.985 86.0953 454.762 76.0353 454.762 60.1688C454.762 44.3698 445.985 34.4449 431.806 34.4449C417.695 34.4449 408.918 44.3698 408.918 60.1688C408.918 76.0353 417.695 86.0953 431.806 86.0953ZM431.806 76.3728C425.595 76.3728 421.611 72.2543 421.611 64.8275V55.6452C421.611 48.2858 425.595 44.2348 431.806 44.2348C438.153 44.2348 442.137 48.2858 442.137 55.6452V64.8275C442.137 72.2543 438.153 76.3728 431.806 76.3728ZM509.991 89.1335C509.991 80.2213 504.792 75.0225 492.707 75.0225H479.473C475.085 75.0225 472.992 73.8072 472.992 71.3091C472.992 69.1485 474.612 67.7307 476.503 66.9205C478.663 67.4606 481.229 67.7307 484.065 67.7307C497.5 67.7307 504.522 61.114 504.522 51.1891C504.522 45.18 501.956 40.3188 496.825 37.4831V36.2003H507.358V26.883H499.661C495.137 26.883 492.707 29.2461 492.707 34.1073V35.7277C490.209 34.85 487.103 34.4449 484.065 34.4449C470.764 34.4449 463.674 41.1966 463.674 51.1891C463.674 57.7382 466.713 62.8019 472.654 65.5701V65.9752C467.928 66.988 463.539 69.5536 463.539 74.6174C463.539 78.6009 465.835 81.8417 469.886 82.8545V83.9347C464.417 84.7449 461.109 87.8507 461.109 93.3871C461.109 100.611 467.455 105 484.065 105C502.969 105 509.991 99.3961 509.991 89.1335ZM498.648 90.5514C498.648 94.6699 495.137 96.6954 487.305 96.6954H481.229C473.667 96.6954 470.831 94.3998 470.831 90.6189C470.831 88.6609 471.574 86.838 473.397 85.4876H490.209C496.353 85.4876 498.648 87.3781 498.648 90.5514ZM484.065 59.4936C478.326 59.4936 475.22 56.8605 475.22 51.9317V50.3788C475.22 45.3151 478.326 42.817 484.065 42.817C489.871 42.817 492.977 45.3151 492.977 50.3788V51.9317C492.977 56.8605 489.871 59.4936 484.065 59.4936Z" fill="black"/>
<path d="M26.199 106C11.7513 106 0 94.2488 0 79.8022V35.8427C0 31.6436 3.40398 28.2385 7.60542 28.2385C11.8069 28.2385 15.2108 31.6436 15.2108 35.8427V79.8034C15.2108 85.8624 20.1399 90.7915 26.199 90.7915C32.258 90.7915 37.1871 85.8624 37.1871 79.8034C37.1895 77.7762 36.6305 75.7879 35.5721 74.0589C34.5137 72.33 32.9973 70.9278 31.1908 70.008C29.4056 69.0815 28.0599 67.4858 27.448 65.5698C26.8361 63.6539 27.0078 61.5736 27.9256 59.7839C28.8433 57.9942 30.4325 56.6407 32.3454 56.0195C34.2584 55.3983 36.3395 55.5599 38.1336 56.4689C46.9281 60.9815 52.3979 69.9216 52.3979 79.8011C52.3967 94.2488 40.6467 106 26.199 106Z" fill="url(#paint0_linear_3_54)"/>
<path d="M71.8362 87.4112C69.8183 87.4109 67.8831 86.6091 66.4562 85.1823C65.0293 83.7554 64.2276 81.8202 64.2273 79.8022C64.2273 61.5104 51.2005 45.7837 33.2554 42.4211C31.2728 42.0498 29.5188 40.9065 28.3787 39.2426C27.2386 37.5787 26.8057 35.5303 27.1751 33.5473C27.5475 31.5641 28.6922 29.8099 30.3575 28.6704C32.0228 27.5309 34.0725 27.0993 36.0559 27.4706C61.1936 32.1808 79.4405 54.1913 79.4405 79.8022C79.4408 81.8195 78.6399 83.7544 77.2139 85.1813C75.7879 86.6082 73.8535 87.4103 71.8362 87.4112Z" fill="url(#paint1_linear_3_54)"/>
<path d="M98.88 87.4112C96.862 87.4109 94.9268 86.6091 93.5 85.1822C92.0731 83.7554 91.2713 81.8202 91.271 79.8022C91.271 46.7468 66.5522 18.9588 33.7748 15.1632C31.7707 14.931 29.941 13.9122 28.6881 12.3309C28.0677 11.548 27.6077 10.6505 27.3341 9.68968C27.0606 8.72891 26.979 7.72367 27.094 6.73136C27.209 5.73905 27.5183 4.7791 28.0043 3.90633C28.4902 3.03355 29.1433 2.26504 29.9263 1.64467C31.5076 0.391784 33.5218 -0.181627 35.5259 0.0505826C75.9785 4.73594 106.485 39.0219 106.485 79.8022C106.486 81.8197 105.685 83.7548 104.258 85.1817C102.832 86.6086 100.897 87.4106 98.88 87.4112Z" fill="url(#paint2_linear_3_54)"/>
</g>
<defs>
<linearGradient id="paint0_linear_3_54" x1="-15.0906" y1="27.516" x2="4733.77" y2="2241.95" gradientUnits="userSpaceOnUse">
<stop stop-color="#395ECA"/>
<stop offset="1" stop-color="#848BD8"/>
</linearGradient>
<linearGradient id="paint1_linear_3_54" x1="9.80112" y1="38.1325" x2="4758.32" y2="2252.4" gradientUnits="userSpaceOnUse">
<stop stop-color="#395ECA"/>
<stop offset="1" stop-color="#848BD8"/>
</linearGradient>
<linearGradient id="paint2_linear_3_54" x1="21.3532" y1="13.3522" x2="7221.24" y2="3370.71" gradientUnits="userSpaceOnUse">
<stop stop-color="#395ECA"/>
<stop offset="1" stop-color="#848BD8"/>
</linearGradient>
<clipPath id="clip0_3_54">
<rect width="506.1" height="105.9" fill="white"/>
</clipPath>
</defs>
</svg>
