<svg data-v-423bf9ae="" xmlns="http://www.w3.org/2000/svg" viewBox="0 0 235.9940012239655 60" class="font"><!----><!----><!----><g data-v-423bf9ae="" id="edd4e605-7a73-4733-a062-c5b1690eb699" fill="black" transform="matrix(4.501125307082416,0,0,4.501125307082416,-5.176290694886632,-17.959490733440653)"><path d="M1.15 14.35L4.70 14.35C7.25 14.35 8.92 12.71 8.92 9.46C8.92 6.22 7.25 4.58 4.70 4.58L1.15 4.58ZM3.00 12.71L3.00 6.22L4.70 6.22C6.08 6.22 6.96 7.03 6.96 8.69L6.96 10.23C6.96 11.90 6.08 12.71 4.70 12.71ZM13.64 14.52C14.99 14.52 16.06 14 16.66 13.17L15.69 12.10C15.25 12.67 14.71 13.09 13.83 13.09C12.66 13.09 12.05 12.38 12.05 11.33L12.05 11.14L16.91 11.14L16.91 10.56C16.91 8.55 15.86 6.87 13.58 6.87C11.44 6.87 10.19 8.37 10.19 10.68C10.19 13.02 11.48 14.52 13.64 14.52ZM13.61 8.22C14.53 8.22 15.05 8.90 15.05 9.91L15.05 10.04L12.05 10.04L12.05 9.93C12.05 8.92 12.67 8.22 13.61 8.22ZM22.06 14.35L24.51 7.04L22.81 7.04L21.81 10.19L21.10 12.80L21 12.80L20.29 10.19L19.26 7.04L17.50 7.04L19.94 14.35ZM25.82 14.35L30.77 14.35C32.21 14.35 33.29 13.12 33.29 11.55C33.29 9.88 32.03 9.28 31.18 9.27L31.18 9.18C32.07 9.13 32.93 8.57 32.93 7.08C32.93 5.57 31.95 4.58 30.34 4.58L25.82 4.58ZM27.66 10.16L30.24 10.16C30.94 10.16 31.36 10.56 31.36 11.24L31.36 11.72C31.36 12.40 30.94 12.78 30.24 12.78L27.66 12.78ZM27.66 6.15L29.95 6.15C30.62 6.15 31.01 6.52 31.01 7.18L31.01 7.62C31.01 8.26 30.62 8.65 29.95 8.65L27.66 8.65ZM37.74 14.35L37.74 12.92L36.78 12.92L36.78 3.99L34.99 3.99L34.99 12.59C34.99 13.71 35.56 14.35 36.78 14.35ZM42 14.52C44.10 14.52 45.40 13.03 45.40 10.68C45.40 8.34 44.10 6.87 42 6.87C39.91 6.87 38.61 8.34 38.61 10.68C38.61 13.03 39.91 14.52 42 14.52ZM42 13.08C41.08 13.08 40.49 12.47 40.49 11.37L40.49 10.01C40.49 8.92 41.08 8.32 42 8.32C42.94 8.32 43.53 8.92 43.53 10.01L43.53 11.37C43.53 12.47 42.94 13.08 42 13.08ZM53.58 14.97C53.58 13.65 52.81 12.88 51.02 12.88L49.06 12.88C48.41 12.88 48.10 12.70 48.10 12.33C48.10 12.01 48.34 11.80 48.62 11.68C48.94 11.76 49.32 11.80 49.74 11.80C51.73 11.80 52.77 10.82 52.77 9.35C52.77 8.46 52.39 7.74 51.63 7.32L51.63 7.13L53.19 7.13L53.19 5.75L52.05 5.75C51.38 5.75 51.02 6.10 51.02 6.82L51.02 7.06C50.65 6.93 50.19 6.87 49.74 6.87C47.77 6.87 46.72 7.87 46.72 9.35C46.72 10.32 47.17 11.07 48.05 11.48L48.05 11.54C47.35 11.69 46.70 12.07 46.70 12.82C46.70 13.41 47.04 13.89 47.64 14.04L47.64 14.20C46.83 14.32 46.34 14.78 46.34 15.60C46.34 16.67 47.28 17.32 49.74 17.32C52.54 17.32 53.58 16.49 53.58 14.97ZM51.90 15.18C51.90 15.79 51.38 16.09 50.22 16.09L49.32 16.09C48.20 16.09 47.78 15.75 47.78 15.19C47.78 14.90 47.89 14.63 48.16 14.43L50.65 14.43C51.56 14.43 51.90 14.71 51.90 15.18ZM49.74 10.58C48.89 10.58 48.43 10.19 48.43 9.46L48.43 9.23C48.43 8.48 48.89 8.11 49.74 8.11C50.60 8.11 51.06 8.48 51.06 9.23L51.06 9.46C51.06 10.19 50.60 10.58 49.74 10.58Z"></path></g><!----><!----></svg>